<?xml version="1.0" encoding="UTF-8"?>
<svg width="93px" height="35px" viewBox="0 0 93 35" version="1.1" xmlns="http://www.w3.org/2000/svg" xmlns:xlink="http://www.w3.org/1999/xlink">
    <!-- Generator: Sketch 63.1 (92452) - https://sketch.com -->
    <title>elife-logo-xxs</title>
    <desc>Created with Sketch.</desc>
    <g id="elife-logo-xxs" stroke="none" stroke-width="1" fill="none" fill-rule="evenodd">
        <rect id="Rectangle" fill="#FFFFFF" x="0" y="0" width="93" height="35"></rect>
        <g id="logo" transform="translate(2.000000, 2.000000)">
            <g id="symbol" transform="translate(0.720000, 0.720000)">
                <circle id="Oval" stroke="#BEC3C5" stroke-width="1.36" fill="#FFFFFF" cx="14.62" cy="14.62" r="13.94"></circle>
                <path d="M12.548788,12.548958 C13.292708,13.292878 14.509908,13.292878 15.253488,12.548958 L22.252728,5.550058 C21.252788,4.698358 20.110728,4.010878 18.867008,3.526378 L12.548788,9.844258 C11.804868,10.588178 11.804868,11.805038 12.548788,12.548958" id="Fill-2" fill="#7CB13F"></path>
                <path d="M16.605872,16.606042 C17.349792,17.349962 17.349792,18.566822 16.605872,19.310742 L11.196472,24.720142 C10.452552,25.463722 9.235692,25.463722 8.491772,24.720142 C7.747852,23.976222 7.747852,22.759362 8.491772,22.015442 L13.901172,16.606042 C14.644752,15.862122 15.861952,15.862122 16.605872,16.606042" id="Fill-4" fill="#D71D62"></path>
                <path d="M11.196438,13.901308 C11.940358,14.645228 11.940358,15.862428 11.196438,16.606008 C10.452518,17.349928 9.235658,17.349928 8.491738,16.606008 C7.747818,15.862428 7.747818,14.645228 8.491738,13.901308 C9.235658,13.157388 10.452518,13.157388 11.196438,13.901308" id="Fill-6" fill="#336A2D"></path>
                <path d="M17.958256,7.13966 C18.702176,7.88358 18.702176,9.10044 17.958256,9.84436 C17.214336,10.58828 15.997136,10.58828 15.253556,9.84436 C14.509636,9.10044 14.509636,7.88358 15.253556,7.13966 C15.997136,6.39574 17.214336,6.39574 17.958256,7.13966" id="Fill-8" fill="#336A2D"></path>
                <path d="M12.548788,20.662956 C13.292708,21.406876 13.292708,22.624076 12.548788,23.367656 C11.804868,24.111576 10.587668,24.111576 9.844088,23.367656 C9.100168,22.624076 9.100168,21.406876 9.844088,20.662956 C10.587668,19.919036 11.804868,19.919036 12.548788,20.662956" id="Fill-10" fill="#861450"></path>
                <path d="M24.720074,8.492044 C25.463994,9.235964 25.463994,10.452824 24.720074,11.196744 C23.976154,11.940664 22.758954,11.940664 22.015374,11.196744 C21.271454,10.452824 21.271454,9.235964 22.015374,8.492044 C22.758954,7.748124 23.976154,7.748124 24.720074,8.492044" id="Fill-12" fill="#861450"></path>
                <path d="M20.66299,12.548958 C21.40691,13.292878 21.40691,14.510078 20.66299,15.253658 C19.91907,15.997578 18.70187,15.997578 17.95829,15.253658 C17.21437,14.510078 17.21437,13.292878 17.95829,12.548958 C18.70187,11.805038 19.91907,11.805038 20.66299,12.548958" id="Fill-14" fill="#D71D62"></path>
                <path d="M22.01534,19.310776 C22.75926,20.054696 22.75926,21.271556 22.01534,22.015476 C21.27142,22.759396 20.05422,22.759396 19.31064,22.015476 C18.56672,21.271556 18.56672,20.054696 19.31064,19.310776 C20.05422,18.566856 21.27142,18.566856 22.01534,19.310776" id="Fill-16" fill="#2994D2"></path>
                <path d="M11.196438,5.78731 C11.940358,6.53123 11.940358,7.74809 11.196438,8.49201 C10.452518,9.23593 9.235658,9.23593 8.491738,8.49201 C7.747818,7.74809 7.747818,6.53123 8.491738,5.78731 C9.235658,5.04339 10.452518,5.04339 11.196438,5.78731" id="Fill-18" fill="#08589B"></path>
                <path d="M7.13966,17.958392 C6.39574,17.214472 5.17854,17.214472 4.43496,17.958392 L3.52614,18.866872 C4.01064,20.110932 4.69812,21.252652 5.54982,22.252592 L7.13966,20.663092 C7.88358,19.919172 7.88358,18.702312 7.13966,17.958392" id="Fill-20" fill="#861450"></path>
                <path d="M12.548788,4.434926 C13.292708,5.178846 14.509908,5.178846 15.253488,4.434926 L16.606008,3.082406 C16.655988,3.032426 16.694408,2.975306 16.737588,2.920906 C16.036848,2.791366 15.315368,2.719966 14.577568,2.719966 C13.691528,2.719966 12.829288,2.820606 11.998328,3.005906 C11.977588,3.521346 12.157448,4.043586 12.548788,4.434926" id="Fill-22" fill="#D71D62"></path>
                <path d="M7.13966,12.548958 C7.88358,11.805038 7.88358,10.588178 7.13966,9.844258 C6.39574,9.100338 5.17854,9.100338 4.43496,9.844258 L3.2691,11.009778 C2.91312,12.136538 2.72,13.334698 2.72,14.577398 C2.72,15.206058 2.76998,15.823158 2.86484,16.425638 C3.1926,16.345398 3.50404,16.184578 3.7587,15.929918 L7.13966,12.548958 Z" id="Fill-24" fill="#2994D2"></path>
                <path d="M23.36769,15.253692 C22.62377,15.997612 22.62377,17.214472 23.36769,17.958392 C24.05823,18.648932 25.15235,18.689732 25.90137,18.097792 C26.24817,16.984972 26.43483,15.802792 26.43483,14.577432 C26.43483,13.839292 26.36377,13.118152 26.23423,12.417072 C26.17983,12.460592 26.12271,12.498672 26.07239,12.548992 L23.36769,15.253692 Z" id="Fill-26" fill="#08589B"></path>
                <path d="M17.958256,23.36769 C17.214336,22.62377 15.997136,22.62377 15.253556,23.36769 L12.548856,26.07239 C12.498536,26.12271 12.460456,26.17983 12.416936,26.23423 C13.118016,26.36377 13.839496,26.43483 14.577636,26.43483 C15.802656,26.43483 16.985176,26.24817 18.097656,25.90171 C18.689596,25.15269 18.648796,24.05857 17.958256,23.36769" id="Fill-28" fill="#7CB13F"></path>
            </g>
            <g id="letters" transform="translate(33.020000, 5.052824)" fill="#666B6E">
                <path d="M6.68712,7.781036 C5.9143,7.781036 5.30842,8.026176 4.87016,8.516116 C4.4319,9.006396 4.18098,9.701356 4.11706,10.602016 L9.23304,10.602016 C9.21706,9.701356 8.98212,9.006396 8.52788,8.516116 C8.07364,8.026176 7.45994,7.781036 6.68712,7.781036 M7.2012,19.040816 C5.04968,19.040816 3.36804,18.447176 2.15696,17.259896 C0.94554,16.072616 0.34,14.390976 0.34,12.215656 C0.34,9.976416 0.89998,8.245136 2.01926,7.022156 C3.13888,5.798836 4.6869,5.187176 6.66332,5.187176 C8.55168,5.187176 10.02218,5.725056 11.0738,6.800816 C12.12576,7.876576 12.65174,9.362716 12.65174,11.259236 L12.65174,13.028596 L4.03342,13.028596 C4.07354,14.064236 4.38022,14.873096 4.9538,15.454836 C5.52772,16.036576 6.3325,16.327616 7.36848,16.327616 C8.17326,16.327616 8.93418,16.243976 9.65158,16.076356 C10.36864,15.909076 11.11766,15.642176 11.89864,15.275656 L11.89864,18.096636 C11.26114,18.415216 10.57978,18.652536 9.85456,18.807916 C9.12968,18.963296 8.245,19.040816 7.2012,19.040816" id="Fill-32"></path>
                <polygon id="Fill-34" points="14.62 18.787176 14.62 1.787176 18.02 1.787176 18.02 16.067176 24.82 16.067176 24.82 18.787176"></polygon>
                <path d="M26.86,18.787176 L30.26,18.787176 L30.26,5.867176 L26.86,5.867176 L26.86,18.787176 Z M26.86,2.80167752 C26.86,1.67190203 27.4268609,1.107176 28.56,1.107176 C29.6934304,1.107176 30.26,1.67190203 30.26,2.80167752 C30.26,3.33988148 30.1184304,3.75873612 29.835,4.05791801 C29.5518609,4.35742334 29.1268609,4.507176 28.56,4.507176 C27.4268609,4.507176 26.86,3.93856869 26.86,2.80167752 L26.86,2.80167752 Z" id="Fill-36"></path>
                <path d="M41.14,8.587176 L37.74,8.587176 L37.74,18.787176 L34.34,18.787176 L34.34,8.587176 L32.3,8.587176 L32.3,6.547176 L34.34,5.867176 L34.34,5.187176 C34.34,3.665336 34.7531,2.180216 35.50212,1.479136 C36.25114,0.777716 37.45032,0.427176 39.1,0.427176 C40.35902,0.427176 41.47864,0.614516 42.45886,0.988856 L41.47218,3.493636 C40.7388,3.262776 39.72152,3.147176 39.1,3.147176 C38.58218,3.147176 38.2075,3.300516 37.9763,3.607196 C37.74544,3.914216 37.74,4.709136 37.74,5.187176 L37.74,5.867176 L41.14,5.867176 L41.14,8.587176 Z" id="Fill-38"></path>
                <path d="M48.84712,7.781036 C48.0743,7.781036 47.46842,8.026176 47.03016,8.516116 C46.5919,9.006396 46.34098,9.701356 46.27706,10.602016 L51.39304,10.602016 C51.37706,9.701356 51.14212,9.006396 50.68788,8.516116 C50.23364,8.026176 49.61994,7.781036 48.84712,7.781036 M49.3612,19.040816 C47.20968,19.040816 45.52804,18.447176 44.31696,17.259896 C43.10554,16.072616 42.5,14.390976 42.5,12.215656 C42.5,9.976416 43.05998,8.245136 44.17926,7.022156 C45.29888,5.798836 46.8469,5.187176 48.82332,5.187176 C50.71168,5.187176 52.18218,5.725056 53.2338,6.800816 C54.28576,7.876576 54.81174,9.362716 54.81174,11.259236 L54.81174,13.028596 L46.19342,13.028596 C46.23354,14.064236 46.54022,14.873096 47.1138,15.454836 C47.68772,16.036576 48.4925,16.327616 49.52848,16.327616 C50.33326,16.327616 51.09418,16.243976 51.81158,16.076356 C52.52864,15.909076 53.27766,15.642176 54.05864,15.275656 L54.05864,18.096636 C53.42114,18.415216 52.73978,18.652536 52.01456,18.807916 C51.28968,18.963296 50.405,19.040816 49.3612,19.040816" id="Fill-39"></path>
            </g>
        </g>
    </g>
</svg>