<?xml version="1.0" encoding="UTF-8"?>
<svg width="500px" height="500px" viewBox="0 0 500 500" version="1.1" xmlns="http://www.w3.org/2000/svg" xmlns:xlink="http://www.w3.org/1999/xlink">
    <title>journal-symbol-no-hoop</title>
    <desc>Created with Sketch.</desc>
    <g id="journal-symbol-no-hoop" stroke="none" stroke-width="1" fill="none" fill-rule="evenodd">
        <rect id="Rectangle" fill="#FFFFFF" x="0" y="0" width="500" height="500"></rect>
        <g id="logo" transform="translate(58.000000, 58.000000)">
            <g id="symbol">
                <path d="M158.9951,158.99785 C171.0291,171.03185 190.7191,171.03185 202.7476,158.99785 L315.9706,45.78035 C299.7951,32.00285 281.3206,20.88185 261.2016,13.04435 L158.9951,115.24535 C146.9611,127.27935 146.9611,146.96385 158.9951,158.99785" id="Fill-2" fill="#7CB13F"></path>
                <path d="M224.6244,224.62715 C236.6584,236.66115 236.6584,256.34565 224.6244,268.37965 L137.1194,355.88465 C125.0854,367.91315 105.4009,367.91315 93.3669,355.88465 C81.3329,343.85065 81.3329,324.16615 93.3669,312.13215 L180.8719,224.62715 C192.9004,212.59315 212.5904,212.59315 224.6244,224.62715" id="Fill-4" fill="#D71D62"></path>
                <path d="M137.11885,180.8741 C149.15285,192.9081 149.15285,212.5981 137.11885,224.6266 C125.08485,236.6606 105.40035,236.6606 93.36635,224.6266 C81.33235,212.5981 81.33235,192.9081 93.36635,180.8741 C105.40035,168.8401 125.08485,168.8401 137.11885,180.8741" id="Fill-6" fill="#336A2D"></path>
                <path d="M246.5012,71.4945 C258.5352,83.5285 258.5352,103.213 246.5012,115.247 C234.4672,127.281 214.7772,127.281 202.7487,115.247 C190.7147,103.213 190.7147,83.5285 202.7487,71.4945 C214.7772,59.4605 234.4672,59.4605 246.5012,71.4945" id="Fill-8" fill="#336A2D"></path>
                <path d="M158.9951,290.2537 C171.0291,302.2877 171.0291,321.9777 158.9951,334.0062 C146.9611,346.0402 127.2711,346.0402 115.2426,334.0062 C103.2086,321.9777 103.2086,302.2877 115.2426,290.2537 C127.2711,278.2197 146.9611,278.2197 158.9951,290.2537" id="Fill-10" fill="#861450"></path>
                <path d="M355.88355,93.3713 C367.91755,105.4053 367.91755,125.0898 355.88355,137.1238 C343.84955,149.1578 324.15955,149.1578 312.13105,137.1238 C300.09705,125.0898 300.09705,105.4053 312.13105,93.3713 C324.15955,81.3373 343.84955,81.3373 355.88355,93.3713" id="Fill-12" fill="#861450"></path>
                <path d="M290.25425,158.99785 C302.28825,171.03185 302.28825,190.72185 290.25425,202.75035 C278.22025,214.78435 258.53025,214.78435 246.50175,202.75035 C234.46775,190.72185 234.46775,171.03185 246.50175,158.99785 C258.53025,146.96385 278.22025,146.96385 290.25425,158.99785" id="Fill-14" fill="#D71D62"></path>
                <path d="M312.1305,268.3802 C324.1645,280.4142 324.1645,300.0987 312.1305,312.1327 C300.0965,324.1667 280.4065,324.1667 268.378,312.1327 C256.344,300.0987 256.344,280.4142 268.378,268.3802 C280.4065,256.3462 300.0965,256.3462 312.1305,268.3802" id="Fill-16" fill="#2994D2"></path>
                <path d="M137.11885,49.61825 C149.15285,61.65225 149.15285,81.33675 137.11885,93.37075 C125.08485,105.40475 105.40035,105.40475 93.36635,93.37075 C81.33235,81.33675 81.33235,61.65225 93.36635,49.61825 C105.40035,37.58425 125.08485,37.58425 137.11885,49.61825" id="Fill-18" fill="#08589B"></path>
                <path d="M71.4945,246.5034 C59.4605,234.4694 39.7705,234.4694 27.742,246.5034 L13.0405,261.1994 C20.878,281.3239 31.999,299.7929 45.7765,315.9684 L71.4945,290.2559 C83.5285,278.2219 83.5285,258.5374 71.4945,246.5034" id="Fill-20" fill="#861450"></path>
                <path d="M158.9951,27.74145 C171.0291,39.77545 190.7191,39.77545 202.7476,27.74145 L224.6266,5.86245 C225.4351,5.05395 226.0566,4.12995 226.7551,3.24995 C215.4196,1.15445 203.7486,-0.00055 191.8136,-0.00055 C177.4806,-0.00055 163.5326,1.62745 150.0906,4.62495 C149.7551,12.96295 152.6646,21.41095 158.9951,27.74145" id="Fill-22" fill="#D71D62"></path>
                <path d="M71.4945,158.99785 C83.5285,146.96385 83.5285,127.27935 71.4945,115.24535 C59.4605,103.21135 39.7705,103.21135 27.742,115.24535 L8.8825,134.09935 C3.124,152.32635 0,171.70835 0,191.81085 C0,201.98035 0.8085,211.96285 2.343,221.70885 C7.645,220.41085 12.683,217.80935 16.8025,213.68985 L71.4945,158.99785 Z" id="Fill-24" fill="#2994D2"></path>
                <path d="M334.00675,202.7509 C321.97275,214.7849 321.97275,234.4694 334.00675,246.5034 C345.17725,257.6739 362.87625,258.3339 374.99275,248.7584 C380.60275,230.7569 383.62225,211.6334 383.62225,191.8114 C383.62225,179.8709 382.47275,168.2054 380.37725,156.8644 C379.49725,157.5684 378.57325,158.1844 377.75925,158.9984 L334.00675,202.7509 Z" id="Fill-26" fill="#08589B"></path>
                <path d="M246.5012,334.00675 C234.4672,321.97275 214.7772,321.97275 202.7487,334.00675 L158.9962,377.75925 C158.1822,378.57325 157.5662,379.49725 156.8622,380.37725 C168.2032,382.47275 179.8742,383.62225 191.8147,383.62225 C211.6312,383.62225 230.7602,380.60275 248.7562,374.99825 C258.3317,362.88175 257.6717,345.18275 246.5012,334.00675" id="Fill-28" fill="#7CB13F"></path>
            </g>
        </g>
    </g>
</svg>